<svg width="235" height="76" viewBox="0 0 235 76" fill="none" xmlns="http://www.w3.org/2000/svg">
<rect width="199" height="55" rx="27.5" fill="#21C006"/>
<path d="M74.3026 35H71.4901L76.6108 20.4545H79.8636L84.9915 35H82.179L78.294 23.4375H78.1804L74.3026 35ZM74.3949 29.2969H82.0653V31.4134H74.3949V29.2969ZM90.5099 35.1918C89.6529 35.1918 88.8859 34.9716 88.2088 34.5312C87.5317 34.0909 86.9967 33.4517 86.6037 32.6136C86.2107 31.7756 86.0142 30.7576 86.0142 29.5597C86.0142 28.3475 86.2131 27.3248 86.6108 26.4915C87.0133 25.6534 87.5554 25.0213 88.2372 24.5952C88.919 24.1643 89.679 23.9489 90.517 23.9489C91.1563 23.9489 91.6818 24.0578 92.0938 24.2756C92.5057 24.4886 92.8324 24.7467 93.0739 25.0497C93.3153 25.348 93.5024 25.6297 93.6349 25.8949H93.7415V20.4545H96.3196V35H93.7912V33.2812H93.6349C93.5024 33.5464 93.3106 33.8281 93.0597 34.1264C92.8087 34.42 92.4773 34.6709 92.0653 34.8793C91.6534 35.0876 91.1349 35.1918 90.5099 35.1918ZM91.2273 33.0824C91.7718 33.0824 92.2358 32.9356 92.6193 32.642C93.0028 32.3437 93.294 31.9295 93.4929 31.3991C93.6918 30.8688 93.7912 30.2509 93.7912 29.5455C93.7912 28.84 93.6918 28.2268 93.4929 27.706C93.2988 27.1851 93.0099 26.7803 92.6264 26.4915C92.2476 26.2027 91.7813 26.0582 91.2273 26.0582C90.6544 26.0582 90.1761 26.2074 89.7926 26.5057C89.4091 26.804 89.1203 27.2159 88.9261 27.7415C88.732 28.267 88.6349 28.8684 88.6349 29.5455C88.6349 30.2273 88.732 30.8357 88.9261 31.3707C89.125 31.901 89.4162 32.3201 89.7997 32.6278C90.188 32.9309 90.6638 33.0824 91.2273 33.0824ZM99.0593 35V24.0909H101.63V35H99.0593ZM100.352 22.5426C99.9447 22.5426 99.5943 22.4077 99.3008 22.1378C99.0072 21.8632 98.8604 21.5341 98.8604 21.1506C98.8604 20.7623 99.0072 20.4332 99.3008 20.1634C99.5943 19.8887 99.9447 19.7514 100.352 19.7514C100.764 19.7514 101.114 19.8887 101.403 20.1634C101.697 20.4332 101.843 20.7623 101.843 21.1506C101.843 21.5341 101.697 21.8632 101.403 22.1378C101.114 22.4077 100.764 22.5426 100.352 22.5426ZM109.033 35.2131C107.944 35.2131 107.009 34.974 106.227 34.4957C105.451 34.0175 104.852 33.357 104.43 32.5142C104.014 31.6667 103.805 30.6913 103.805 29.5881C103.805 28.4801 104.018 27.5024 104.445 26.6548C104.871 25.8026 105.472 25.1397 106.249 24.6662C107.03 24.188 107.953 23.9489 109.018 23.9489C109.904 23.9489 110.688 24.1122 111.369 24.4389C112.056 24.7609 112.603 25.2178 113.01 25.8097C113.417 26.3968 113.649 27.0833 113.706 27.8693H111.249C111.149 27.3437 110.912 26.9058 110.538 26.5554C110.169 26.2003 109.674 26.0227 109.054 26.0227C108.528 26.0227 108.067 26.1648 107.669 26.4489C107.271 26.7282 106.961 27.1307 106.739 27.6562C106.521 28.1818 106.412 28.8116 106.412 29.5455C106.412 30.2888 106.521 30.928 106.739 31.4631C106.956 31.9934 107.262 32.4029 107.655 32.6918C108.053 32.9759 108.519 33.1179 109.054 33.1179C109.433 33.1179 109.771 33.0469 110.07 32.9048C110.373 32.758 110.626 32.5473 110.83 32.2727C111.033 31.9981 111.173 31.6643 111.249 31.2713H113.706C113.644 32.0431 113.417 32.7273 113.024 33.3239C112.631 33.9157 112.096 34.3797 111.419 34.7159C110.742 35.0473 109.946 35.2131 109.033 35.2131ZM115.817 35V24.0909H118.388V35H115.817ZM117.11 22.5426C116.703 22.5426 116.352 22.4077 116.059 22.1378C115.765 21.8632 115.618 21.5341 115.618 21.1506C115.618 20.7623 115.765 20.4332 116.059 20.1634C116.352 19.8887 116.703 19.7514 117.11 19.7514C117.522 19.7514 117.872 19.8887 118.161 20.1634C118.454 20.4332 118.601 20.7623 118.601 21.1506C118.601 21.5341 118.454 21.8632 118.161 22.1378C117.872 22.4077 117.522 22.5426 117.11 22.5426ZM125.79 35.2131C124.725 35.2131 123.802 34.9787 123.021 34.5099C122.239 34.0412 121.633 33.3854 121.202 32.5426C120.776 31.6998 120.563 30.715 120.563 29.5881C120.563 28.4612 120.776 27.474 121.202 26.6264C121.633 25.7789 122.239 25.1207 123.021 24.652C123.802 24.1832 124.725 23.9489 125.79 23.9489C126.856 23.9489 127.779 24.1832 128.56 24.652C129.342 25.1207 129.945 25.7789 130.371 26.6264C130.802 27.474 131.018 28.4612 131.018 29.5881C131.018 30.715 130.802 31.6998 130.371 32.5426C129.945 33.3854 129.342 34.0412 128.56 34.5099C127.779 34.9787 126.856 35.2131 125.79 35.2131ZM125.805 33.1534C126.382 33.1534 126.865 32.9948 127.254 32.6776C127.642 32.3556 127.931 31.9247 128.12 31.3849C128.314 30.8452 128.411 30.2438 128.411 29.581C128.411 28.9134 128.314 28.3097 128.12 27.7699C127.931 27.2254 127.642 26.7921 127.254 26.4702C126.865 26.1482 126.382 25.9872 125.805 25.9872C125.213 25.9872 124.72 26.1482 124.327 26.4702C123.939 26.7921 123.648 27.2254 123.454 27.7699C123.264 28.3097 123.17 28.9134 123.17 29.581C123.17 30.2438 123.264 30.8452 123.454 31.3849C123.648 31.9247 123.939 32.3556 124.327 32.6776C124.72 32.9948 125.213 33.1534 125.805 33.1534ZM135.771 28.608V35H133.2V24.0909H135.657V25.9446H135.785C136.036 25.3338 136.436 24.8485 136.985 24.4886C137.539 24.1288 138.224 23.9489 139.038 23.9489C139.791 23.9489 140.447 24.1098 141.005 24.4318C141.569 24.7538 142.004 25.2202 142.312 25.831C142.625 26.4418 142.779 27.1828 142.774 28.054V35H140.203V28.4517C140.203 27.7225 140.013 27.152 139.635 26.7401C139.261 26.3281 138.742 26.1222 138.079 26.1222C137.629 26.1222 137.229 26.2216 136.879 26.4205C136.533 26.6146 136.261 26.8963 136.062 27.2656C135.868 27.6349 135.771 28.0824 135.771 28.608ZM148.527 35.2202C147.835 35.2202 147.213 35.0971 146.659 34.8509C146.109 34.5999 145.674 34.2306 145.352 33.7429C145.035 33.2552 144.876 32.6539 144.876 31.9389C144.876 31.3234 144.99 30.8144 145.217 30.4119C145.444 30.0095 145.754 29.6875 146.147 29.446C146.54 29.2045 146.983 29.0223 147.475 28.8991C147.973 28.7713 148.486 28.679 149.017 28.6222C149.656 28.5559 150.174 28.4967 150.572 28.4446C150.97 28.3878 151.259 28.3026 151.439 28.1889C151.623 28.0705 151.716 27.8883 151.716 27.642V27.5994C151.716 27.0644 151.557 26.6501 151.24 26.3565C150.922 26.063 150.466 25.9162 149.869 25.9162C149.239 25.9162 148.74 26.0535 148.37 26.3281C148.006 26.6027 147.76 26.9271 147.632 27.3011L145.231 26.9602C145.421 26.2973 145.733 25.7434 146.169 25.2983C146.604 24.8485 147.137 24.5123 147.767 24.2898C148.396 24.0625 149.092 23.9489 149.855 23.9489C150.38 23.9489 150.904 24.0104 151.424 24.1335C151.945 24.2566 152.421 24.4602 152.852 24.7443C153.283 25.0237 153.628 25.4048 153.889 25.8878C154.154 26.3707 154.287 26.9744 154.287 27.6989V35H151.815V33.5014H151.73C151.574 33.8045 151.353 34.0885 151.069 34.3537C150.79 34.6141 150.437 34.8248 150.011 34.9858C149.59 35.142 149.095 35.2202 148.527 35.2202ZM149.194 33.331C149.71 33.331 150.158 33.2292 150.537 33.0256C150.915 32.8172 151.207 32.5426 151.41 32.2017C151.618 31.8608 151.723 31.4891 151.723 31.0866V29.8011C151.642 29.8674 151.505 29.929 151.311 29.9858C151.121 30.0426 150.908 30.0923 150.672 30.1349C150.435 30.1776 150.2 30.2154 149.968 30.2486C149.736 30.2817 149.535 30.3101 149.365 30.3338C148.981 30.3859 148.638 30.4711 148.335 30.5895C148.032 30.7079 147.793 30.8736 147.618 31.0866C147.442 31.295 147.355 31.5649 147.355 31.8963C147.355 32.3698 147.528 32.7273 147.873 32.9688C148.219 33.2102 148.659 33.331 149.194 33.331ZM156.872 35V24.0909H159.365V25.9091H159.478C159.677 25.2794 160.018 24.794 160.501 24.4531C160.989 24.1075 161.545 23.9347 162.17 23.9347C162.312 23.9347 162.471 23.9418 162.646 23.956C162.826 23.9654 162.975 23.982 163.093 24.0057V26.3707C162.984 26.3329 162.812 26.2997 162.575 26.2713C162.343 26.2382 162.118 26.2216 161.9 26.2216C161.431 26.2216 161.01 26.3234 160.636 26.527C160.267 26.7259 159.975 27.0028 159.762 27.358C159.549 27.7131 159.443 28.1226 159.443 28.5866V35H156.872Z" fill="#DEFFD8"/>
<path fill-rule="evenodd" clip-rule="evenodd" d="M41 45C51.4933 45 60 36.941 60 27C60 17.0589 51.4933 9 41 9C30.5066 9 22 17.0589 22 27C22 36.941 30.5066 45 41 45ZM42.425 21.6C42.425 20.8544 41.787 20.25 41 20.25C40.213 20.25 39.575 20.8544 39.575 21.6V25.65H35.3C34.513 25.65 33.875 26.2544 33.875 27C33.875 27.7456 34.513 28.35 35.3 28.35H39.575V32.4C39.575 33.1456 40.213 33.75 41 33.75C41.787 33.75 42.425 33.1456 42.425 32.4V28.35H46.7C47.487 28.35 48.125 27.7456 48.125 27C48.125 26.2544 47.487 25.65 46.7 25.65H42.425V21.6Z" fill="#DFF9DA"/>
</svg>
