<svg width="142" height="137" viewBox="0 0 142 137" fill="none" xmlns="http://www.w3.org/2000/svg">
<path d="M99.5 80.4875V52.7583C110.265 51.5025 116 44.0684 116 33.3938C116 21.4634 109.302 12.6083 97.2703 12.6083C85.8719 12.6083 76.07 19.5797 74.8035 30.2542H60.2389L54.5397 15.8122C53.9064 13.3005 51.3735 11.4167 48.8405 11.4167H23.5108C19.7113 11.4167 17 12.0447 17 15.8122C17 19.5797 19.7113 21.4083 23.5108 21.4083L34.6595 21.4083H45.8973L48.8405 30.2542L42.5081 30.2542C38.7086 30.2542 36.1756 32.7659 36.1756 36.5334V80.4875C36.1756 95.5575 46.9408 108.116 61.5054 111.255V124.442H55.1729C51.3735 124.442 48.8405 126.953 48.8405 130.721C48.8405 134.488 51.3735 137 55.1729 137H80.5027C84.3021 137 86.8351 134.488 86.8351 130.721C86.8351 126.953 84.3021 124.442 80.5027 124.442H74.1702V111.255C88.7348 108.116 99.5 95.5575 99.5 80.4875ZM96.3337 23.9751C101.4 23.9751 105.832 28.3705 105.832 33.3938C105.832 37.7892 103.299 40.9288 99.5 42.1846V36.5334C99.5 32.7659 96.967 30.2542 93.1675 30.2542H87.4683C88.7348 26.4867 91.901 23.9751 96.3337 23.9751ZM66.2324 103.358C55.4673 103.358 44.4078 91.1621 44.4078 80.4875V39.5583L80.5027 39.5583L86.8351 42.8126L90.3135 47.8083V80.4875C90.3135 91.1621 76.9976 103.358 66.2324 103.358Z" fill="#ED4A3A"/>
</svg>
