<svg width="102" height="102" viewBox="0 0 102 102" fill="none" xmlns="http://www.w3.org/2000/svg">
<g clip-path="url(#clip0_9_17)">
<path d="M93.6505 93.4911C93.6505 98.1711 89.8216 102 85.1417 102H17.0709C12.391 102 8.56201 98.1711 8.56201 93.4911C8.56201 90.3004 10.2637 87.535 12.8164 86.2585C9.83826 70.0917 9.62572 63.7101 12.391 48.3941C12.8164 45.8414 13.4545 43.0761 14.0927 39.8852C38.7683 34.9925 63.444 34.9925 87.9071 39.8852C88.5453 43.0759 89.1833 45.8414 89.6088 48.3941C92.3743 63.7101 92.3743 70.0917 89.1833 86.2585C91.9488 87.7475 93.6505 90.3002 93.6505 93.4911Z" fill="#FF7058"/>
<path d="M84.2909 47.3306C62.3807 50.9468 39.832 50.9468 17.9218 47.3306C16.0074 47.1178 14.3056 46.0543 13.2419 44.7779C13.0292 46.0541 12.8164 47.3306 12.6037 48.3941C14.0927 49.4576 15.7944 50.0958 17.4964 50.5213C28.5579 52.4358 40.0448 53.2867 51.3191 53.2867C62.5934 53.2867 73.8675 52.4358 84.9291 50.5213C86.8436 50.3085 88.3326 49.4578 89.8218 48.3941C89.609 47.3304 89.3963 46.0541 89.1835 44.7779C87.9071 46.0541 86.2054 46.9051 84.2909 47.3306Z" fill="#ED4A3A"/>
<path d="M20.4743 32.2273C40.8956 35.6307 61.5295 35.6307 81.9507 32.2273C83.4397 32.0145 84.7162 32.2273 85.9924 32.6528C86.2052 30.5255 85.5669 27.5474 83.8652 25.8456L62.806 4.78618C56.4243 -1.59547 46.001 -1.59547 39.6193 4.78618L18.5599 25.8456C16.8581 27.5474 16.2199 30.5255 16.4327 32.6528C17.4964 32.0145 18.9854 32.0145 20.4743 32.2273Z" fill="#F2F2F2"/>
<path d="M64.0822 66.6883C60.466 66.6883 57.2751 68.1772 54.7226 70.5172C54.9353 67.1137 53.6591 63.4973 50.8936 60.7321C48.1282 63.4975 47.0647 66.901 47.0647 70.5172C44.7247 68.1772 41.3212 66.6883 37.7048 66.6883C37.7048 73.4954 43.0228 79.2388 49.6172 79.6643V82.4298H51.7444V79.6643C58.977 79.2386 64.0822 73.7079 64.0822 66.6883Z" fill="white"/>
<path d="M95.565 37.9707C94.5015 33.2908 90.0343 30.5256 85.3544 31.1636C62.5932 34.9925 39.4066 34.9925 16.6454 31.1636C11.9655 30.3126 7.4983 33.2908 6.43479 37.9707C5.37128 42.6506 8.77475 47.1178 13.88 47.9686C38.3429 52.0103 63.444 52.0103 88.1197 47.9686C93.2251 47.1178 96.6287 42.4379 95.565 37.9707Z" fill="#FFD15C"/>
</g>
<defs>
<clipPath id="clip0_9_17">
<rect width="102" height="102" fill="white"/>
</clipPath>
</defs>
</svg>
