<svg width="41" height="40" viewBox="0 0 41 40" fill="none" xmlns="http://www.w3.org/2000/svg">
<path d="M15.6492 18.1166C15.4784 18.0999 15.2734 18.0999 15.0855 18.1166C11.0196 17.9833 7.79089 14.7333 7.79089 10.7333C7.79089 6.64992 11.1734 3.33325 15.3759 3.33325C19.5612 3.33325 22.9608 6.64992 22.9608 10.7333C22.9437 14.7333 19.715 17.9833 15.6492 18.1166Z" stroke="#292D32" stroke-width="3" stroke-linecap="round" stroke-linejoin="round"/>
<path opacity="0.4" d="M28.0325 6.66675C31.3467 6.66675 34.0117 9.28341 34.0117 12.5001C34.0117 15.6501 31.4492 18.2167 28.2546 18.3334C28.1179 18.3167 27.9642 18.3167 27.8104 18.3334" stroke="#292D32" stroke-width="3" stroke-linecap="round" stroke-linejoin="round"/>
<path d="M7.10795 24.2667C2.97378 26.9667 2.97378 31.3667 7.10795 34.0501C11.8059 37.1167 19.5105 37.1167 24.2084 34.0501C28.3425 31.3501 28.3425 26.9501 24.2084 24.2667C19.5275 21.2167 11.8229 21.2167 7.10795 24.2667Z" stroke="#292D32" stroke-width="3" stroke-linecap="round" stroke-linejoin="round"/>
<path opacity="0.4" d="M31.3304 33.3333C32.5604 33.0833 33.7221 32.5999 34.6788 31.8833C37.3438 29.9333 37.3438 26.7166 34.6788 24.7666C33.7392 24.0666 32.5946 23.5999 31.3817 23.3333" stroke="#292D32" stroke-width="3" stroke-linecap="round" stroke-linejoin="round"/>
</svg>
